<?xml version="1.0" encoding="iso-8859-1"?>
<!-- Uploaded to: SVG Repo, www.svgrepo.com, Generator: SVG Repo Mixer Tools -->
<svg fill="#000000" height="800px" width="800px" version="1.1" id="Capa_1" xmlns="http://www.w3.org/2000/svg" xmlns:xlink="http://www.w3.org/1999/xlink" 
	 viewBox="0 0 490 490" xml:space="preserve">
<path d="M486.945,44.957L445.022,3.053c-4.073-4.07-10.67-4.07-14.742,0l-45.707,45.685l-15.729-15.722
	c-3.909-3.908-10.832-3.908-14.741,0l-31.034,31.019l-26.142-26.13c-3.909-3.908-10.833-3.908-14.742,0L128.182,191.841
	l14.741,14.734L289.557,60.007l18.771,18.762l-31.034,31.019c-4.072,4.07-4.072,10.664,0,14.734l5.22,5.218L59.828,352.32
	c-0.247,0.247-1.868,2.429-2.052,2.905L1.025,474.863c-1.884,3.979-1.153,8.807,2.052,11.83c2.857,2.695,6.963,4.726,11.835,2.051
	l119.7-56.726c0.051-0.024,2.672-1.816,2.907-2.051L360.2,207.39l5.218,5.215c4.666,4.596,10.782,4.199,14.742,0l76.809-76.772
	c3.659-2.623,4.771-10.403,0-14.735l-15.727-15.719l45.703-45.686C491.018,55.621,491.018,49.027,486.945,44.957z M32.387,457.396
	l37.898-79.89l42.031,42.011L32.387,457.396z M130.146,407.865l-48.205-48.178l215.315-215.213l48.203,48.181L130.146,407.865z
	 M372.789,190.503l-73.382-73.348l62.066-62.037l73.383,73.348L372.789,190.503z M426.501,90.644l-27.185-27.172l38.335-38.318
	l27.182,27.17L426.501,90.644z"/>
</svg>